<svg width="26.000000" height="25.000000" viewBox="0 0 26 25" fill="none" xmlns="http://www.w3.org/2000/svg" xmlns:xlink="http://www.w3.org/1999/xlink">
	<desc>
			Created with Pixso.
	</desc>
	<defs/>
	<path id="Vector" d="M26 12.07C26 4.89 20.17 -0.93 13 -0.93C5.82 -0.93 0 4.89 0 12.07C0 18.56 4.75 23.94 10.96 24.92L10.96 15.83L7.66 15.83L7.66 12.07L10.96 12.07L10.96 9.21C10.96 5.95 12.91 4.15 15.87 4.15C17.3 4.15 18.78 4.41 18.78 4.41L18.78 7.61L17.14 7.61C15.53 7.61 15.03 8.61 15.03 9.64L15.03 12.07L18.63 12.07L18.05 15.83L15.03 15.83L15.03 24.92C21.24 23.94 26 18.56 26 12.07Z" fill="#000000" fill-opacity="1.000000" fill-rule="nonzero"/>
</svg>
