<svg width="59.000000" height="70.000000" viewBox="0 0 59 70" fill="none" xmlns="http://www.w3.org/2000/svg" xmlns:xlink="http://www.w3.org/1999/xlink">
	<desc>
			Created with Pixso.
	</desc>
	<defs>
		<clipPath id="clip1_233">
			<rect id="Frame" width="59.000000" height="70.000000" fill="white" fill-opacity="0"/>
		</clipPath>
	</defs>
	<rect id="Frame" width="59.000000" height="70.000000" fill="#FFFFFF" fill-opacity="0"/>
	<g clip-path="url(#clip1_233)">
		<path id="Vector" d="M37.05 35.43L38.3 34.67C40.68 33.14 42.78 31.04 44.12 28.55C45.65 26.07 46.41 23.11 46.41 20.15L46.41 18.62L47.94 18.62C52.24 18.62 55.68 15.09 55.68 10.88C55.68 6.59 52.14 3.15 47.94 3.15C45.55 3.15 43.26 4.29 41.83 6.2L40.87 7.44L39.63 6.49C37.05 4.48 33.9 3.34 30.65 3.15C28.93 3.05 27.22 3.15 25.5 3.53C23.59 3.91 21.77 4.58 20.05 5.53C19.86 5.63 19.69 5.75 19.53 5.87C19.36 5.99 19.19 6.11 19 6.2L17.86 6.97L17 5.92C15.56 4.1 13.37 3.05 11.07 3.05C6.78 3.05 3.34 6.59 3.34 10.79C3.34 15.09 6.87 18.52 11.07 18.52L12.6 18.52L12.6 20.05C12.6 24.16 14.04 28.17 16.81 31.23C18.43 33.04 20.34 34.47 22.44 35.43C24.64 36.48 27.02 36.96 29.51 36.96L29.51 40.01C26.64 40.01 23.78 39.44 21.2 38.2C19 37.15 17 35.72 15.28 34C13.94 34.47 12.6 35.14 11.36 36C9.93 37.05 8.59 38.29 7.54 39.73C5.25 42.69 4.1 46.22 4.1 49.95C4.1 54.44 5.92 58.73 9.07 61.89C12.22 65.13 16.52 66.85 21.01 66.85L33.14 66.85C34.76 66.85 36.19 66.09 37.05 64.66C37.91 63.22 37.91 61.6 37.15 60.17C35.72 57.59 33.71 55.39 31.13 53.86C28.46 52.34 25.5 51.48 22.44 51.48L22.44 48.42C26.07 48.42 29.6 49.47 32.66 51.28C35.62 53 38.1 55.58 39.82 58.64L43.26 64.66C43.83 65.71 44.79 66.47 45.94 66.76C47.08 67.04 48.32 66.95 49.37 66.38C50.42 65.8 51.19 64.85 51.57 63.61C51.95 62.36 51.76 61.12 51.19 60.07L37.05 35.43ZM49.37 21.58C49.18 24.54 48.32 27.5 46.8 30.08C45.36 32.66 43.45 34.76 40.68 36.19L53.39 58.35C54.34 60.17 54.63 62.27 54.05 64.27C53.48 66.28 52.14 67.9 50.33 68.86C49.28 69.43 48.04 69.72 46.8 69.72C46.13 69.72 45.36 69.62 44.69 69.43C42.78 68.86 41.16 67.62 40.21 65.9L39.73 65.04C39.63 65.18 39.56 65.32 39.49 65.47C39.42 65.61 39.35 65.75 39.25 65.9C37.91 68.19 35.43 69.62 32.76 69.62L20.63 69.62C17.95 69.62 15.37 69.14 12.89 68.09C10.6 67.04 8.4 65.61 6.59 63.8C4.77 61.98 3.34 59.88 2.29 57.49C1.33 55.1 0.76 52.43 0.76 49.76C0.76 47.56 1.14 45.46 1.81 43.36C2.48 41.35 3.53 39.54 4.77 37.82C6.01 36.19 7.54 34.76 9.26 33.52C10.41 32.76 11.65 32.09 12.89 31.51C10.79 28.55 9.55 25.11 9.26 21.49C6.97 21.2 4.87 20.15 3.15 18.43C1.14 16.33 0 13.75 0 10.79C0 7.83 1.14 5.15 3.15 3.15C5.25 1.14 7.92 0 10.79 0C13.65 0 16.23 1.05 18.24 2.96C18.29 2.96 18.31 2.93 18.33 2.91C18.36 2.88 18.38 2.86 18.43 2.86C20.43 1.81 22.54 1.05 24.64 0.57C26.74 0.09 28.74 0 30.75 0.09C34.19 0.38 37.44 1.43 40.21 3.24C41.06 2.38 41.92 1.71 42.98 1.24C44.5 0.47 46.13 0.09 47.85 0.09C50.81 0.09 53.48 1.24 55.49 3.24C57.49 5.34 58.64 7.92 58.64 10.88C58.64 13.84 57.49 16.52 55.49 18.52C53.86 20.24 51.67 21.29 49.37 21.58ZM18.33 20.15C18.33 18.91 19.29 17.95 20.53 17.95C21.68 17.95 22.73 18.91 22.73 20.15C22.73 21.39 21.77 22.34 20.53 22.34C19.29 22.34 18.33 21.39 18.33 20.15ZM25.78 21.68C25.78 19.57 27.5 17.95 29.51 17.95C31.61 17.95 33.23 19.57 33.23 21.68L33.23 25.4C33.23 27.5 31.51 29.13 29.51 29.13C27.41 29.13 25.78 27.41 25.78 25.4L25.78 21.68ZM38.58 17.95C37.34 17.95 36.38 18.91 36.38 20.15C36.38 21.39 37.34 22.34 38.58 22.34C39.82 22.34 40.78 21.39 40.78 20.15C40.78 18.91 39.82 17.95 38.58 17.95Z" fill="#000000" fill-opacity="1.000000" fill-rule="evenodd"/>
	</g>
</svg>
