<svg width="26.000000" height="26.000000" viewBox="0 0 26 26" fill="none" xmlns="http://www.w3.org/2000/svg" xmlns:xlink="http://www.w3.org/1999/xlink">
	<desc>
			Created with Pixso.
	</desc>
	<defs/>
	<path id="Vector" d="M22.15 22.15L18.3 22.15L18.3 16.12C18.3 14.68 18.27 12.83 16.29 12.83C14.28 12.83 13.98 14.39 13.98 16.01L13.98 22.15L10.13 22.15L10.13 9.75L13.82 9.75L13.82 11.44L13.87 11.44C14.39 10.46 15.65 9.43 17.52 9.43C21.43 9.43 22.15 12 22.15 15.34L22.15 22.15L22.15 22.15ZM5.78 8.05C4.54 8.05 3.54 7.04 3.54 5.81C3.54 4.58 4.54 3.58 5.78 3.58C7.01 3.58 8.01 4.58 8.01 5.81C8.01 7.04 7.01 8.05 5.78 8.05ZM7.71 22.15L3.85 22.15L3.85 9.75L7.71 9.75L7.71 22.15ZM24.07 0L1.91 0C0.85 0 0 0.83 0 1.87L0 24.12C0 25.16 0.85 26 1.91 26L24.07 26C25.13 26 26 25.16 26 24.12L26 1.87C26 0.83 25.13 0 24.07 0L24.07 0Z" fill="#000000" fill-opacity="1.000000" fill-rule="nonzero"/>
</svg>
