<svg width="25.000000" height="25.000000" viewBox="0 0 25 25" fill="none" xmlns="http://www.w3.org/2000/svg" xmlns:xlink="http://www.w3.org/1999/xlink">
	<desc>
			Created with Pixso.
	</desc>
	<defs/>
	<path id="Vector" d="M12 5.53C13.12 5.53 14.19 5.86 15.2 6.43C16.21 6.99 17 7.78 17.56 8.79C18.13 9.8 18.46 10.87 18.46 12C18.46 13.18 18.13 14.25 17.56 15.26C17 16.27 16.21 17.06 15.2 17.62C14.19 18.18 13.12 18.46 12 18.46C10.81 18.46 9.75 18.18 8.73 17.62C7.72 17.06 6.93 16.27 6.37 15.26C5.81 14.25 5.53 13.18 5.53 12C5.53 10.87 5.81 9.8 6.37 8.79C6.93 7.78 7.72 6.99 8.73 6.43C9.75 5.86 10.81 5.53 12 5.53ZM12 16.21C13.12 16.21 14.13 15.82 14.98 14.98C15.76 14.19 16.21 13.18 16.21 12C16.21 10.87 15.76 9.86 14.98 9.01C14.13 8.23 13.12 7.78 12 7.78C10.81 7.78 9.8 8.23 9.01 9.01C8.17 9.86 7.78 10.87 7.78 12C7.78 13.18 8.17 14.19 9.01 14.98C9.8 15.82 10.81 16.21 12 16.21ZM20.26 5.25C20.26 4.85 20.1 4.51 19.81 4.18C19.48 3.89 19.14 3.73 18.75 3.73C18.29 3.73 17.96 3.89 17.68 4.18C17.34 4.51 17.23 4.85 17.23 5.25C17.23 5.69 17.34 6.03 17.68 6.31C17.96 6.65 18.29 6.76 18.75 6.76C19.14 6.76 19.48 6.65 19.76 6.31C20.04 6.03 20.21 5.69 20.26 5.25ZM24.54 6.76C24.54 7.83 24.6 9.58 24.6 12C24.6 14.47 24.54 16.21 24.48 17.28C24.43 18.35 24.26 19.25 24.03 20.04C23.7 21 23.13 21.84 22.46 22.51C21.78 23.19 20.94 23.69 20.04 24.03C19.25 24.31 18.29 24.48 17.23 24.54C16.16 24.6 14.41 24.6 12 24.6C9.52 24.6 7.78 24.6 6.71 24.54C5.64 24.48 4.74 24.31 3.95 23.98C3 23.69 2.15 23.19 1.48 22.51C0.8 21.84 0.3 21 -0.04 20.04C-0.32 19.25 -0.49 18.35 -0.55 17.28C-0.6 16.21 -0.6 14.47 -0.6 12C-0.6 9.58 -0.6 7.83 -0.55 6.76C-0.49 5.69 -0.32 4.74 -0.04 3.95C0.3 3.05 0.8 2.21 1.48 1.53C2.15 0.86 3 0.29 3.95 -0.04C4.74 -0.27 5.64 -0.44 6.71 -0.49C7.78 -0.55 9.52 -0.61 12 -0.61C14.41 -0.61 16.16 -0.55 17.23 -0.49C18.29 -0.44 19.25 -0.27 20.04 -0.04C20.94 0.29 21.78 0.86 22.46 1.53C23.13 2.21 23.7 3.05 24.03 3.95C24.26 4.74 24.43 5.69 24.54 6.76ZM21.84 19.42C22.06 18.8 22.18 17.79 22.29 16.38C22.29 15.6 22.35 14.41 22.35 12.89L22.35 11.1C22.35 9.58 22.29 8.39 22.29 7.61C22.18 6.2 22.06 5.19 21.84 4.57C21.39 3.44 20.55 2.6 19.42 2.15C18.8 1.93 17.79 1.81 16.38 1.7C15.54 1.7 14.36 1.64 12.9 1.64L11.1 1.64C9.58 1.64 8.39 1.7 7.61 1.7C6.2 1.81 5.19 1.93 4.57 2.15C3.39 2.6 2.6 3.44 2.15 4.57C1.93 5.19 1.76 6.2 1.7 7.61C1.65 8.45 1.65 9.63 1.65 11.1L1.65 12.89C1.65 14.41 1.65 15.6 1.7 16.38C1.76 17.79 1.93 18.8 2.15 19.42C2.6 20.6 3.45 21.39 4.57 21.84C5.19 22.06 6.2 22.23 7.61 22.29C8.39 22.35 9.58 22.35 11.1 22.35L12.9 22.35C14.41 22.35 15.6 22.35 16.38 22.29C17.79 22.23 18.8 22.06 19.42 21.84C20.55 21.39 21.39 20.54 21.84 19.42Z" fill="#000000" fill-opacity="1.000000" fill-rule="nonzero"/>
</svg>
