<svg width="92.000000" height="29.000000" viewBox="0 0 92 29" fill="none" xmlns="http://www.w3.org/2000/svg" xmlns:xlink="http://www.w3.org/1999/xlink">
	<desc>
			Created with Pixso.
	</desc>
	<defs>
		<clipPath id="clip1_7">
			<rect id="Frame" width="92.000000" height="29.000000" fill="white" fill-opacity="0"/>
		</clipPath>
	</defs>
	<rect id="Frame" width="92.000000" height="29.000000" fill="#FFFFFF" fill-opacity="0"/>
	<g clip-path="url(#clip1_7)">
		<path id="Vector" d="M0 27.99L1.96 26.72L1.96 2.39L0.19 1.54L0.19 1.07L5.05 0L5.05 26.72L6.98 27.99L6.98 28.42L0 28.42L0 27.99ZM65.71 26.72L63.74 27.99L63.74 28.42L70.72 28.42L70.72 27.99L68.79 26.72L68.79 0L63.93 1.07L63.93 1.54L65.71 2.39L65.71 26.72ZM30.42 9.4C34.97 9.4 37.21 13.69 37.21 18.43C37.21 23.17 34.97 27.41 30.42 27.45C25.87 27.45 23.63 23.17 23.63 18.43C23.63 13.69 25.87 9.4 30.42 9.4ZM30.42 7.86C24.41 7.86 20.01 12.37 20.01 18.43C20.01 24.48 24.41 29 30.42 29C36.44 29 40.83 24.48 40.83 18.43C40.83 12.37 36.44 7.86 30.42 7.86ZM9.98 16.77L18.62 26.72L20.78 27.95L20.78 28.42L16.11 28.42C15.27 27.61 6.67 17.58 6.67 17.58L14.34 9.98L12.68 8.9L12.68 8.44L18.93 8.44L18.93 8.9L16.69 9.98L9.98 16.77ZM56.49 20.63L56.49 17.73C48.97 18.43 46.66 20.09 46.66 23.4C46.66 25.91 48.39 27.38 50.55 27.38C54.1 27.34 56.49 24.6 56.49 20.63ZM43.38 23.33C43.38 18.93 48.05 16.81 56.49 16.31L56.49 13.99C56.49 10.87 54.64 9.4 52.09 9.4C49.86 9.4 48.12 10.68 47.54 12.8C47.24 13.99 46.54 14.57 45.77 14.57C44.96 14.57 44.34 13.88 44.34 12.99C44.34 12.49 44.42 12.14 44.81 11.45C45.85 9.44 48.89 7.86 52.09 7.86C56.18 7.86 59.61 9.17 59.61 14.92L59.61 26.68L61.58 27.95L61.58 28.42L56.8 28.42L56.8 24.91C55.49 27.45 53.21 28.96 50.13 28.96C46.62 29 43.38 27.26 43.38 23.33ZM85.95 17.73L85.95 20.63C85.95 24.6 83.6 27.34 80.01 27.38C77.86 27.38 76.12 25.91 76.12 23.4C76.12 20.09 78.43 18.43 85.95 17.73ZM85.99 16.31C77.55 16.81 72.88 18.93 72.88 23.33C72.88 27.26 76.08 29 79.63 28.96C82.71 28.96 84.99 27.45 86.3 24.91L86.3 28.42L91.08 28.42L91.08 27.95L89.12 26.68L89.12 14.92C89.12 9.17 85.68 7.86 81.6 7.86C78.39 7.86 75.35 9.44 74.31 11.45C73.92 12.14 73.84 12.49 73.84 12.99C73.84 13.88 74.46 14.57 75.27 14.57C76.04 14.57 76.74 13.99 77.05 12.8C77.62 10.68 79.36 9.4 81.6 9.4C84.14 9.4 85.99 10.87 85.99 13.99L85.99 16.31Z" fill="#000000" fill-opacity="1.000000" fill-rule="evenodd"/>
	</g>
</svg>
