<svg width="25.000000" height="20.000000" viewBox="0 0 25 20" fill="none" xmlns="http://www.w3.org/2000/svg" xmlns:xlink="http://www.w3.org/1999/xlink">
	<desc>
			Created with Pixso.
	</desc>
	<defs/>
	<path id="Vector" d="M21.99 4.95C22.97 4.23 23.86 3.37 24.6 2.33C23.61 2.76 22.63 3.04 21.64 3.14C22.72 2.47 23.51 1.57 23.91 0.38C22.87 0.95 21.79 1.38 20.61 1.57C20.12 1.09 19.53 0.71 18.89 0.42C18.25 0.14 17.56 0 16.82 0C15.88 0 15.05 0.23 14.26 0.66C13.47 1.14 12.83 1.76 12.39 2.52C11.9 3.28 11.7 4.14 11.7 4.99C11.7 5.37 11.7 5.75 11.8 6.14C9.68 6.04 7.71 5.56 5.84 4.61C3.97 3.71 2.45 2.47 1.17 0.9C0.67 1.71 0.43 2.57 0.43 3.42C0.43 4.28 0.63 5.09 1.07 5.8C1.46 6.56 2.05 7.13 2.74 7.61C1.91 7.61 1.12 7.37 0.43 6.94L0.43 7.04C0.43 8.23 0.82 9.28 1.61 10.18C2.4 11.13 3.38 11.7 4.56 11.94C4.07 12.04 3.63 12.08 3.18 12.08C2.89 12.08 2.55 12.08 2.25 12.04C2.55 13.04 3.14 13.85 4.02 14.51C4.91 15.18 5.89 15.46 7.07 15.46C5.15 16.89 2.99 17.61 0.63 17.61C0.13 17.61 -0.26 17.61 -0.6 17.56C1.76 19.08 4.42 19.79 7.32 19.79C10.32 19.79 12.98 19.08 15.34 17.56C17.46 16.23 19.13 14.46 20.31 12.18C21.45 10.09 22.04 7.85 22.04 5.56C22.04 5.28 21.99 5.09 21.99 4.95Z" fill="#000000" fill-opacity="1.000000" fill-rule="nonzero"/>
</svg>
